<?xml version="1.0" standalone="no"?>
<!DOCTYPE svg PUBLIC "-//W3C//DTD SVG 20010904//EN"
 "http://www.w3.org/TR/2001/REC-SVG-20010904/DTD/svg10.dtd">
<svg version="1.0" xmlns="http://www.w3.org/2000/svg"
 width="512.000000pt" height="512.000000pt" viewBox="0 0 512.000000 512.000000"
 preserveAspectRatio="xMidYMid meet">
<metadata>
Created by potrace 1.11, written by Peter Selinger 2001-2013
</metadata>
<g transform="translate(0.000000,512.000000) scale(0.100000,-0.100000)"
fill="#000000" stroke="none">
<path d="M2414 5111 c-87 -22 -180 -87 -234 -165 -30 -45 -62 -128 -62 -164 0
-12 -4 -25 -9 -28 -5 -3 -372 -5 -815 -6 -600 0 -818 -3 -857 -12 -144 -34
-254 -126 -319 -266 -30 -65 -34 -200 -8 -274 49 -144 174 -254 328 -290 52
-12 371 -14 2119 -14 2242 0 2128 -3 2241 58 294 156 310 546 30 723 -118 75
-58 71 -982 73 -455 2 -831 6 -834 9 -3 3 -7 16 -9 28 -20 138 -123 264 -256
312 -51 19 -83 23 -182 23 -66 0 -134 -3 -151 -7z"/>
<path d="M355 3540 c2 -63 7 -149 10 -190 2 -41 7 -131 10 -200 3 -69 8 -154
10 -190 4 -60 7 -126 20 -395 3 -55 7 -138 10 -185 6 -124 14 -271 20 -385 13
-252 31 -337 105 -490 125 -259 350 -450 625 -530 121 -35 178 -38 723 -38
l492 0 0 -41 0 -41 -228 -138 c-623 -377 -616 -373 -645 -414 -40 -56 -46
-133 -15 -192 35 -68 84 -102 155 -108 73 -7 64 -11 390 189 137 83 269 163
295 179 l46 27 4 -136 c3 -125 5 -140 28 -173 34 -51 79 -79 137 -86 96 -11
182 41 207 125 7 27 14 94 14 155 0 60 2 110 4 111 2 2 147 -85 322 -192 287
-176 324 -196 371 -200 180 -15 282 206 152 328 -19 19 -158 107 -277 177 -21
12 -75 45 -120 73 -46 29 -97 60 -114 70 -157 91 -332 203 -336 216 -4 9 -4
29 -2 44 l4 27 501 0 c506 1 530 2 645 28 373 87 682 415 747 794 8 44 13 113
20 241 3 58 7 139 9 180 3 41 7 131 11 200 6 127 10 204 20 385 3 55 7 145 10
200 3 55 7 141 10 190 3 50 7 131 9 180 3 50 8 141 11 203 4 61 3 113 -1 113
-5 1 -111 2 -236 3 -197 1 -228 -1 -229 -14 0 -8 -2 -46 -4 -85 -2 -38 -6
-119 -9 -180 -3 -60 -8 -150 -11 -200 -3 -49 -7 -135 -10 -190 -3 -55 -8 -145
-11 -200 -2 -55 -6 -131 -9 -170 -2 -38 -6 -131 -10 -205 -3 -74 -7 -162 -10
-195 -2 -33 -7 -118 -10 -190 -8 -163 -12 -197 -35 -263 -57 -161 -194 -288
-364 -337 -54 -15 -163 -17 -1250 -17 -1064 -1 -1198 1 -1253 15 -62 16 -156
59 -178 81 -6 6 -24 20 -39 31 -31 23 -106 117 -128 160 -49 95 -53 125 -73
525 -13 260 -18 352 -30 560 -3 47 -7 137 -11 200 -3 63 -7 147 -9 185 -2 39
-7 138 -10 220 -4 83 -9 161 -10 175 -2 14 -4 41 -4 60 l-1 35 -235 0 -236 0
6 -115z"/>
<path d="M3755 3422 c-37 -17 -82 -63 -250 -251 -16 -19 -39 -45 -51 -57 -12
-13 -52 -58 -90 -101 -38 -42 -78 -87 -89 -99 -11 -12 -48 -53 -81 -90 -34
-38 -72 -81 -85 -95 -13 -14 -55 -61 -94 -105 -38 -43 -93 -104 -121 -134 -28
-30 -64 -70 -80 -89 -16 -18 -46 -52 -66 -74 l-37 -42 -338 227 c-186 125
-351 232 -366 238 -39 14 -101 13 -140 -4 -18 -7 -114 -78 -212 -158 -518
-415 -502 -400 -511 -498 -4 -57 20 -121 60 -159 34 -32 114 -59 160 -54 57 7
79 22 344 236 l243 197 360 -242 c352 -237 360 -242 417 -246 91 -7 122 12
247 154 38 43 93 104 120 134 28 30 109 120 180 200 71 80 146 163 166 185 20
22 62 69 94 105 32 36 72 81 90 100 17 19 53 60 80 90 130 145 204 227 247
274 87 94 106 175 62 264 -48 97 -163 138 -259 94z"/>
</g>
</svg>
